<?xml version="1.0" encoding="UTF-8" standalone="no"?>
<svg
   xmlns:dc="http://purl.org/dc/elements/1.1/"
   xmlns:cc="http://creativecommons.org/ns#"
   xmlns:rdf="http://www.w3.org/1999/02/22-rdf-syntax-ns#"
   xmlns:svg="http://www.w3.org/2000/svg"
   xmlns="http://www.w3.org/2000/svg"
   viewBox="0 0 55 48.184475"
   height="48.184475"
   width="55"
   version="1.1"
   id="svg2">
  <metadata
     id="metadata8">
    <rdf:RDF>
      <cc:Work
         rdf:about="">
        <dc:format>image/svg+xml</dc:format>
        <dc:type
           rdf:resource="http://purl.org/dc/dcmitype/StillImage" />
        <dc:title></dc:title>
      </cc:Work>
    </rdf:RDF>
  </metadata>
  <defs
     id="defs6" />
  <path
     id="path3338"
     d="M 21.875,47.601337 C 19.8125,47.096875 16.896355,46.023955 15.394676,45.217072 13.892999,44.410189 10.698803,43.750011 8.296463,43.750011 0.641868,43.750011 0,42.057621 0,21.875011 0,7.2267424 0.360993,3.5675894 1.964286,1.9642965 3.560997,0.36758562 7.169914,1.0724852e-5 21.25,1.0724852e-5 c 21.374395,0 21.25,-0.08101400485 21.25,13.839286275148 0,9.687399 0.06909,9.910714 3.066184,9.910714 4.196427,0 9.433816,2.540269 9.433816,4.575644 0,0.920896 -0.600405,1.674356 -1.334235,1.674356 -0.745854,0 -0.999049,1.056077 -0.574153,2.394804 0.418044,1.317142 0.165524,2.76226 -0.561156,3.211372 -0.72668,0.449114 -1.021635,1.301334 -0.655456,1.893824 0.366179,0.59249 0.08492,1.43624 -0.625,1.875 -0.709929,0.43876 -0.981963,1.297422 -0.60452,1.908138 1.048456,1.696438 -5.571951,4.627921 -12.536949,5.551297 -3.428442,0.454523 -7.639781,1.019385 -9.358531,1.25525 -1.71875,0.235865 -4.8125,0.0161 -6.875,-0.488359 z m 18.71653,-3.81244 c 5.000481,-1.159344 9.564756,-5.195124 6.88548,-6.088216 -0.780636,-0.260213 -0.399873,-1.197786 0.894236,-2.201921 2.163091,-1.678402 2.156147,-1.824175 -0.172658,-3.623749 -2.119271,-1.637658 -2.158827,-1.875 -0.3125,-1.875 C 49.04874,30.000011 50,29.076972 50,27.948815 50,26.158073 48.690545,25.983882 39.6875,26.57699 34.015625,26.950645 28.53125,27.500242 27.5,27.798317 c -1.03125,0.298076 -1.44962,0.304854 -0.929711,0.01506 0.519907,-0.289793 0.627336,-1.041352 0.238728,-1.670131 -0.388608,-0.628782 1.82469,-1.143238 4.91844,-1.143238 3.09375,0 5.933369,-0.498951 6.310264,-1.10878 0.376895,-0.60983 0.05586,-4.242788 -0.713399,-8.073239 l -1.398663,-6.9644583 -3.6625,1.8939523 C 22.449006,15.822582 13.75,27.654903 13.75,35.928941 c 0,8.034105 11.52898,11.410116 26.84153,7.859956 z"
     style="fill:#1e1e1e" />
</svg>
